<?xml version="1.0" encoding="UTF-8" standalone="no"?>
<!-- Created with Inkscape (http://www.inkscape.org/) -->

<svg
   version="1.1"
   width="20"
   height="24"
   id="svg2"
   sodipodi:docname="clef_base.svg"
   inkscape:version="1.1 (c68e22c387, 2021-05-23)"
   xmlns:inkscape="http://www.inkscape.org/namespaces/inkscape"
   xmlns:sodipodi="http://sodipodi.sourceforge.net/DTD/sodipodi-0.dtd"
   xmlns="http://www.w3.org/2000/svg"
   xmlns:svg="http://www.w3.org/2000/svg"
   xmlns:rdf="http://www.w3.org/1999/02/22-rdf-syntax-ns#"
   xmlns:cc="http://creativecommons.org/ns#"
   xmlns:dc="http://purl.org/dc/elements/1.1/">
  <sodipodi:namedview
     id="namedview6"
     pagecolor="#ffffff"
     bordercolor="#999999"
     borderopacity="1"
     inkscape:pageshadow="0"
     inkscape:pageopacity="0"
     inkscape:pagecheckerboard="0"
     showgrid="false"
     inkscape:zoom="17.958333"
     inkscape:cx="-17.791184"
     inkscape:cy="10.49652"
     inkscape:window-width="1920"
     inkscape:window-height="1051"
     inkscape:window-x="-9"
     inkscape:window-y="-9"
     inkscape:window-maximized="1"
     inkscape:current-layer="svg2" />
  <metadata
     id="metadata8">
    <rdf:RDF>
      <cc:Work
         rdf:about="">
        <dc:format>image/svg+xml</dc:format>
        <dc:type
           rdf:resource="http://purl.org/dc/dcmitype/StillImage" />
      </cc:Work>
    </rdf:RDF>
  </metadata>
  <defs
     id="defs6" />
  <path
     d="m 14.301219,12.346612 c -0.175899,-0.1782 -0.263842,-0.389823 -0.263829,-0.634867 -1.3e-5,-0.267304 0.08793,-0.478925 0.263829,-0.634866 0.175873,-0.178199 0.384738,-0.267303 0.626594,-0.267312 0.24183,9e-6 0.450694,0.08911 0.626595,0.267312 0.175871,0.155941 0.263814,0.367562 0.263829,0.634866 -1.5e-5,0.245044 -0.08796,0.456667 -0.263829,0.634867 -0.175901,0.178215 -0.384765,0.267318 -0.626595,0.267312 -0.241856,6e-6 -0.450721,-0.08909 -0.626594,-0.267312 m 0,-4.4440644 C 14.12532,7.7243515 14.037377,7.5127296 14.03739,7.2676815 14.037377,7.0003819 14.12532,6.78876 14.301219,6.6328151 c 0.175873,-0.178195 0.384738,-0.2672989 0.626594,-0.2673121 0.24183,1.32e-5 0.450694,0.089117 0.626595,0.2673121 0.175871,0.1559449 0.263814,0.3675668 0.263829,0.6348664 -1.5e-5,0.2450481 -0.08796,0.45667 -0.263829,0.6348661 -0.175901,0.1782196 -0.384765,0.2673237 -0.626595,0.2673123 -0.241856,1.14e-5 -0.450721,-0.089093 -0.626594,-0.2673123 M 8.3320845,4.7950442 c 1.5389945,1.48e-5 2.7811895,0.4009826 3.7265865,1.2029046 0.945377,0.7796732 1.41807,1.8711966 1.418082,3.2745735 -1.2e-5,0.9133257 -0.186891,1.7820887 -0.560637,2.6062937 -0.351784,0.801943 -0.802491,1.514774 -1.352124,2.138498 -0.549655,0.601456 -1.242205,1.202907 -2.0776549,1.804356 -0.8354668,0.579179 -1.6489392,1.069251 -2.4404199,1.470216 -0.7695069,0.40097 -1.6489366,0.813076 -2.6382915,1.236319 -0.043975,0.04456 -0.098939,0.06682 -0.1648933,0.06682 -0.1539035,1e-6 -0.2308536,-0.07796 -0.2308505,-0.233898 -3.1e-6,-0.06682 0.032976,-0.111379 0.098936,-0.133656 0.8134694,-0.49007 1.5170131,-0.935591 2.1106334,-1.336561 0.6155954,-0.400966 1.2531819,-0.891037 1.9127614,-1.470216 0.6815508,-0.601446 1.2311943,-1.180621 1.6489323,-1.737527 0.439706,-0.556894 0.80247,-1.202898 1.088295,-1.938012 0.30779,-0.7351 0.461691,-1.503621 0.461702,-2.3055674 -1.1e-5,-1.1137844 -0.274833,-2.08279 -0.824466,-2.9070145 C 9.959022,5.6860985 9.2334926,5.2628547 8.3320845,5.2628405 7.6944906,5.2628547 7.1338542,5.4744767 6.6501735,5.8977068 6.1884673,6.2986882 5.8476882,6.8333119 5.6278355,7.5015795 5.8257025,7.4124878 6.0235742,7.3679356 6.2214512,7.3679234 6.7051322,7.3679356 7.1118685,7.5461436 7.441661,7.9025476 7.7934263,8.2589752 7.9693123,8.671081 7.9693193,9.1388663 7.9693123,9.6512244 7.7934263,10.096744 7.441661,10.475427 7.1118685,10.854128 6.7051322,11.043473 6.2214512,11.043465 5.693788,11.043473 5.2320875,10.865266 4.836348,10.508841 4.4406008,10.130159 4.2427291,9.6735004 4.2427324,9.1388663 4.2427291,7.9582494 4.6384725,6.9446919 5.4299637,6.0981908 6.2434316,5.2294408 7.2108042,4.795059 8.3320845,4.7950442"
     id="path2994"
     style="fill:#ffffff;fill-opacity:0.94999999;stroke-width:1" />
</svg>
