<?xml version="1.0" encoding="UTF-8" standalone="no"?>
<!-- Created with Inkscape (http://www.inkscape.org/) -->

<svg
   id="svg2"
   version="1.1"
   inkscape:version="1.1 (c68e22c387, 2021-05-23)"
   width="20"
   height="24"
   sodipodi:docname="clef.svg"
   xmlns:inkscape="http://www.inkscape.org/namespaces/inkscape"
   xmlns:sodipodi="http://sodipodi.sourceforge.net/DTD/sodipodi-0.dtd"
   xmlns="http://www.w3.org/2000/svg"
   xmlns:svg="http://www.w3.org/2000/svg"
   xmlns:rdf="http://www.w3.org/1999/02/22-rdf-syntax-ns#"
   xmlns:cc="http://creativecommons.org/ns#"
   xmlns:dc="http://purl.org/dc/elements/1.1/">
  <sodipodi:namedview
     pagecolor="#ffffff"
     bordercolor="#666666"
     borderopacity="1"
     objecttolerance="10"
     gridtolerance="10"
     guidetolerance="10"
     inkscape:pageopacity="0"
     inkscape:pageshadow="2"
     inkscape:window-width="1920"
     inkscape:window-height="1051"
     id="namedview4"
     showgrid="true"
     inkscape:zoom="19.666667"
     inkscape:cx="-3.7881355"
     inkscape:cy="14.618644"
     inkscape:window-x="-9"
     inkscape:window-y="-9"
     inkscape:window-maximized="1"
     inkscape:current-layer="svg2"
     inkscape:snap-bbox="true"
     inkscape:pagecheckerboard="0">
    <inkscape:grid
       type="xygrid"
       id="grid2987"
       empspacing="5"
       visible="true"
       enabled="true"
       snapvisiblegridlinesonly="true" />
  </sodipodi:namedview>
  <metadata
     id="metadata8">
    <rdf:RDF>
      <cc:Work
         rdf:about="">
        <dc:format>image/svg+xml</dc:format>
        <dc:type
           rdf:resource="http://purl.org/dc/dcmitype/StillImage" />
      </cc:Work>
    </rdf:RDF>
  </metadata>
  <defs
     id="defs6">
    <inkscape:perspective
       id="perspective10"
       inkscape:persp3d-origin="0.5 : 0.33333333 : 1"
       inkscape:vp_z="1 : 0.5 : 1"
       inkscape:vp_y="0 : 1000 : 0"
       inkscape:vp_x="0 : 0.5 : 1"
       sodipodi:type="inkscape:persp3d" />
  </defs>
  <path
     inkscape:connector-curvature="0"
     id="path2990"
     d="m 13.576172,15.488281 c -10e-6,0.658856 -0.193369,1.238934 -0.580078,1.740235 -0.372405,0.501303 -0.837899,0.845053 -1.396485,1.03125 0.01432,0.143229 0.02148,0.365234 0.02149,0.666015 -8e-6,0.386718 -0.02149,0.837889 -0.06445,1.353516 -0.07162,0.730467 -0.322273,1.353513 -0.751954,1.869141 -0.429693,0.529944 -0.9596407,0.794917 -1.5898433,0.794921 -0.6588586,-5e-6 -1.2317747,-0.22201 -1.71875,-0.666015 -0.4726671,-0.429692 -0.708995,-0.9668 -0.7089924,-1.611328 -2.6e-6,-0.32943 0.1289035,-0.615888 0.3867188,-0.859375 0.2578092,-0.229169 0.5585901,-0.343752 0.9023438,-0.34375 0.3007769,-2e-6 0.5514277,0.114581 0.7519531,0.34375 0.2148388,0.243487 0.3222606,0.529945 0.3222656,0.859375 -5e-6,0.300778 -0.1074268,0.55143 -0.3222656,0.751953 -0.2005254,0.214841 -0.4511762,0.322263 -0.7519531,0.322265 -0.1145872,-2e-6 -0.2291704,-0.02149 -0.3437501,-0.06445 0.1575484,0.243486 0.3652305,0.436846 0.6230469,0.580078 0.257808,0.143226 0.5442661,0.21484 0.859375,0.214844 0.5156194,-4e-6 0.9381453,-0.222009 1.2675783,-0.666016 0.372389,-0.472659 0.572909,-1.002606 0.601562,-1.589843 0.02864,-0.587241 0.04296,-1.024089 0.04297,-1.310547 -7e-6,-0.243489 -7e-6,-0.422527 0,-0.53711 -0.315111,0.05729 -0.601569,0.08594 -0.859375,0.08594 -1.1028695,1e-6 -2.0481811,-0.393879 -2.8359374,-1.181641 -0.77344,-0.802081 -1.1601584,-1.761716 -1.1601563,-2.878906 -2.1e-6,-0.257808 0.021482,-0.522782 0.064453,-0.794922 0.057289,-0.27213 0.114581,-0.501297 0.171875,-0.6875 0.057289,-0.200515 0.1575495,-0.444005 0.3007812,-0.730469 0.1575493,-0.286452 0.264971,-0.494134 0.3222656,-0.623047 0.071612,-0.143222 0.222002,-0.372388 0.4511719,-0.6875 0.2434859,-0.329419 0.3867149,-0.52994 0.4296875,-0.601562 0.057288,-0.07161 0.2291626,-0.2864495 0.515625,-0.6445315 C 8.8137974,9.2506603 8.9713493,9.0429782 9,9 8.72786,8.1549583 8.5273393,7.4316517 8.3984375,6.8300781 8.28385,6.2285279 8.2265584,5.5553515 8.2265625,4.8105469 8.2265584,4.3951964 8.2766885,3.9869937 8.3769531,3.5859375 8.4915321,3.1849112 8.6275996,2.848323 8.7851562,2.5761719 8.9427035,2.2897298 9.1002554,2.039079 9.2578125,1.8242188 9.4296822,1.595069 9.5800726,1.4303557 9.7089844,1.3300781 9.8378849,1.2155121 9.9238223,1.1582205 9.9667971,1.1582031 c 0.1145769,1.74e-5 0.3222589,0.2220224 0.6230469,0.6660157 0.300774,0.4297037 0.587232,0.9954584 0.859375,1.6972656 0.272127,0.7018372 0.408195,1.3392064 0.408203,1.9121093 -8e-6,0.7877728 -0.179044,1.5254023 -0.53711,2.2128907 -0.343756,0.6875102 -0.845058,1.446624 -1.5039058,2.2773441 0.3150978,0.9453195 0.5729108,1.7903705 0.7734378,2.5351555 0.87369,0.01433 1.589835,0.322272 2.148437,0.923828 0.558585,0.601567 0.837881,1.303389 0.837891,2.105469 m -1.998047,2.277344 c 0.343742,-0.128905 0.637362,-0.365233 0.880859,-0.708984 0.243481,-0.343749 0.365226,-0.730466 0.365235,-1.160157 -9e-6,-0.529944 -0.179045,-1.002601 -0.53711,-1.417968 -0.343758,-0.429684 -0.80209,-0.694657 -1.375,-0.794922 0.358066,1.475263 0.580071,2.83594 0.666016,4.082031 M 9.7304687,16.927734 c -0.057297,2e-6 -0.1718804,-0.04297 -0.34375,-0.128906 C 9.2291615,16.712892 9.0501253,16.591148 8.8496094,16.433594 8.6634069,16.261722 8.4986935,16.025393 8.3554687,15.724609 8.2122355,15.423832 8.140621,15.101565 8.140625,14.757812 c -4e-6,-0.544266 0.1718708,-1.031245 0.515625,-1.460936 0.358068,-0.444006 0.8378852,-0.71614 1.439453,-0.816407 -0.1718807,-0.615878 -0.3867242,-1.317702 -0.6445311,-2.105468 -0.3867237,0.501308 -0.6803432,0.895189 -0.8808594,1.18164 -0.2005251,0.286465 -0.436853,0.658861 -0.7089844,1.117188 -0.2721389,0.444014 -0.4726595,0.880863 -0.6015625,1.310547 -0.1145864,0.415368 -0.171878,0.852217 -0.171875,1.310546 -3e-6,0.716149 0.3294238,1.339195 0.9882813,1.869141 0.6731724,0.529948 1.4036404,0.794921 2.1914061,0.794921 0.286452,0 0.565748,-0.02148 0.837891,-0.06445 -0.08595,-1.303384 -0.315111,-2.71419 -0.6875,-4.232422 -0.4726619,0.02865 -0.8522193,0.179041 -1.1386721,0.451172 -0.2721404,0.272139 -0.4082079,0.587243 -0.4082032,0.945312 -4.7e-6,0.615889 0.3365835,1.095707 1.0097657,1.439453 0.057286,0.05729 0.085932,0.121747 0.085938,0.19336 0.01432,0.05729 -0.0072,0.114585 -0.064453,0.171875 -0.042974,0.04297 -0.1002661,0.06445 -0.171875,0.06445 M 10.589844,2.8125 C 10.045567,3.1562654 9.6087184,3.6217597 9.2792969,4.2089844 8.9641878,4.7819148 8.8066359,5.3977996 8.8066406,6.0566406 8.8066359,6.5436318 8.9928336,7.3743601 9.3652344,8.5488281 9.8951765,7.8470159 10.303379,7.1738395 10.589844,6.5292969 10.890618,5.8847783 11.041009,5.2116019 11.041016,4.5097656 11.041009,4.1373842 11.012363,3.8437647 10.955078,3.6289062 10.89778,3.4140776 10.776035,3.1419425 10.589844,2.8125"
     style="fill:#ffffff;fill-opacity:0.94999999" />
</svg>
