<?xml version="1.0" encoding="UTF-8" standalone="no"?>
<!-- Created with Inkscape (http://www.inkscape.org/) -->

<svg
   width="400"
   height="100"
   viewBox="0 0 105.83333 26.458334"
   version="1.1"
   id="svg5"
   inkscape:version="1.1 (c68e22c387, 2021-05-23)"
   sodipodi:docname="title.svg"
   xmlns:inkscape="http://www.inkscape.org/namespaces/inkscape"
   xmlns:sodipodi="http://sodipodi.sourceforge.net/DTD/sodipodi-0.dtd"
   xmlns="http://www.w3.org/2000/svg"
   xmlns:svg="http://www.w3.org/2000/svg">
  <sodipodi:namedview
     id="namedview7"
     pagecolor="#505050"
     bordercolor="#eeeeee"
     borderopacity="1"
     inkscape:pageshadow="0"
     inkscape:pageopacity="0"
     inkscape:pagecheckerboard="0"
     inkscape:document-units="mm"
     showgrid="false"
     units="px"
     width="1200px"
     inkscape:zoom="1.5358305"
     inkscape:cx="193.05516"
     inkscape:cy="23.11453"
     inkscape:window-width="1920"
     inkscape:window-height="1051"
     inkscape:window-x="-9"
     inkscape:window-y="-9"
     inkscape:window-maximized="1"
     inkscape:current-layer="layer1" />
  <defs
     id="defs2">
    <rect
       x="44.275719"
       y="122.40934"
       width="1450.6809"
       height="195.33405"
       id="rect1442" />
  </defs>
  <g
     inkscape:label="图层 1"
     inkscape:groupmode="layer"
     id="layer1">
    <g
       aria-label="♪Genshin Impact.WindsongLyre"
       transform="matrix(0.26458333,0,0,0.26458495,-3.879005,-22.773773)"
       id="text1440"
       style="font-size:21.3333px;line-height:1.25;font-family:'Sitka Small';-inkscape-font-specification:'Sitka Small, Normal';white-space:pre;shape-inside:url(#rect1442);fill:#e8e6e6">
      <path
         d="m 49.337883,127.14814 h 0.395832 q 1.791664,0 2.36458,0.14584 0.822915,0.20833 1.447914,0.80208 0.46875,0.4375 0.739582,1.23958 0.270833,0.79167 0.270833,1.85416 v 1.07292 h -1.031248 v -0.44792 q 0,-0.70833 -0.302083,-1.19791 -0.291666,-0.5 -0.874998,-0.76042 -0.760416,-0.33333 -1.687498,-0.33333 h -0.291666 v 8.6979 q 0,1.26042 -0.333333,1.96875 -0.333333,0.69791 -1.145831,1.125 -0.812499,0.41666 -1.770831,0.41666 -1.135415,0 -1.80208,-0.63541 -0.656249,-0.64583 -0.656249,-1.6875 0,-1.09375 0.791665,-1.83333 0.791666,-0.75 2.072913,-0.75 0.812499,0 1.812498,0.47917 z"
         style="font-size:21.3333px;line-height:1.25;font-family:'Sitka Small';-inkscape-font-specification:'Sitka Small, Normal';white-space:pre;shape-inside:url(#rect1442);fill:#e8e6e6"
         id="path886" />
      <path
         d="m 66.268083,136.41029 q 0,-0.19394 -0.09697,-0.28121 -0.09697,-0.097 -0.242424,-0.13576 l -2.094542,-0.57212 v -0.78545 h 6.109081 v 0.78545 l -1.231513,0.57212 q -0.106667,0.0485 -0.232727,0.13576 -0.116364,0.0873 -0.116364,0.28121 v 1.61939 q 0,0.96 0.0097,1.60969 0.0097,0.6497 0.04848,1.02788 -0.543029,0.19394 -1.192725,0.37818 -0.639999,0.17455 -1.347877,0.3103 -0.707878,0.14546 -1.454543,0.22303 -0.736969,0.0873 -1.473937,0.0873 -1.406059,0 -2.656966,-0.46546 -1.24121,-0.47515 -2.181814,-1.39636 -0.930908,-0.92121 -1.483634,-2.28848 -0.54303,-1.36727 -0.54303,-3.16121 0,-1.70666 0.533333,-3.07393 0.533332,-1.36727 1.473937,-2.32727 0.950301,-0.96 2.239996,-1.47394 1.299392,-0.51394 2.831511,-0.51394 0.969695,0 1.735755,0.0776 0.766059,0.0679 1.386664,0.18424 0.620605,0.10667 1.105453,0.23273 0.494545,0.11636 0.911514,0.21333 v 3.68484 h -1.328483 l -0.290909,-2.08484 q -0.01939,-0.14545 -0.174545,-0.24242 -0.145454,-0.10667 -0.271515,-0.15516 -0.358787,-0.14545 -0.746665,-0.25212 -0.378181,-0.11636 -0.775757,-0.19394 -0.397575,-0.0873 -0.804847,-0.12606 -0.407272,-0.0485 -0.814544,-0.0485 -1.047271,0 -1.9103,0.34909 -0.863029,0.33939 -1.473937,1.04727 -0.610908,0.69818 -0.950302,1.76485 -0.339393,1.06666 -0.339393,2.50181 0,1.43515 0.339393,2.62788 0.349091,1.18302 1.008484,2.03636 0.659393,0.85333 1.619391,1.32848 0.959999,0.47515 2.181815,0.47515 0.484848,0 0.901817,-0.0582 0.426666,-0.0679 0.766059,-0.15515 0.34909,-0.097 0.601211,-0.19394 0.261818,-0.097 0.426666,-0.16485 z"
         style="font-size:21.3333px;line-height:1.25;font-family:'Sitka Small';-inkscape-font-specification:'Sitka Small, Normal';white-space:pre;shape-inside:url(#rect1442);fill:#e8e6e6"
         id="path888" />
      <path
         d="m 81.676518,138.65998 v 1.24121 q -0.387878,0.30061 -0.892119,0.60121 -0.504242,0.29091 -1.095756,0.53334 -0.591515,0.23272 -1.250907,0.37818 -0.659393,0.15515 -1.33818,0.15515 -1.095756,0 -2.055754,-0.35879 -0.950302,-0.35879 -1.65818,-1.05697 -0.69818,-0.70788 -1.105452,-1.73575 -0.407273,-1.03758 -0.407273,-2.37576 0,-1.22181 0.387879,-2.26908 0.387878,-1.04727 1.076362,-1.81333 0.69818,-0.76606 1.658179,-1.20243 0.959998,-0.43636 2.104239,-0.43636 1.086059,0 1.939391,0.33939 0.853332,0.3394 1.444846,0.92121 0.591514,0.58182 0.901817,1.36728 0.319999,0.77575 0.319999,1.64848 0,0.097 -0.0097,0.25212 0,0.14545 -0.0097,0.3103 -0.0097,0.16485 -0.02909,0.32 -0.01939,0.15515 -0.04848,0.26182 h -7.621807 q 0,2.13333 1.008484,3.19999 1.008483,1.05697 2.812117,1.05697 0.562423,0 1.086058,-0.13576 0.523636,-0.13575 0.979393,-0.33939 0.455757,-0.20364 0.833938,-0.43636 0.378181,-0.23273 0.639999,-0.42667 z m -2.143027,-4.04363 q 0,-0.73697 -0.135757,-1.30909 -0.135757,-0.58181 -0.44606,-0.97939 -0.300605,-0.39758 -0.785453,-0.60121 -0.484848,-0.21333 -1.183029,-0.21333 -0.601211,0 -1.115149,0.20363 -0.504242,0.20364 -0.89212,0.60121 -0.387878,0.39758 -0.630302,0.9794 -0.242424,0.57212 -0.300606,1.31878 z"
         style="font-size:21.3333px;line-height:1.25;font-family:'Sitka Small';-inkscape-font-specification:'Sitka Small, Normal';white-space:pre;shape-inside:url(#rect1442);fill:#e8e6e6"
         id="path890" />
      <path
         d="m 83.935886,140.55089 1.231513,-0.42667 q 0.164848,-0.0582 0.261818,-0.15515 0.106666,-0.097 0.106666,-0.29091 v -6.9915 q 0,-0.19394 -0.116363,-0.28121 -0.106667,-0.097 -0.252121,-0.16485 l -1.212119,-0.52364 v -0.82424 l 3.393934,-0.48485 v 1.67758 h 0.155151 q 0.455757,-0.58182 0.901817,-0.93091 0.455757,-0.34909 0.89212,-0.53333 0.446059,-0.18425 0.872725,-0.24243 0.436363,-0.0582 0.853332,-0.0582 0.698181,0 1.318786,0.20364 0.630302,0.20363 1.095756,0.64 0.475151,0.43636 0.746666,1.11515 0.271514,0.67878 0.271514,1.61939 v 5.7309 q 0,0.23272 0.09697,0.33939 0.106666,0.10667 0.271515,0.15515 l 1.086058,0.42667 v 0.79515 h -4.848477 v -0.79515 l 0.969696,-0.42667 q 0.164848,-0.0776 0.281211,-0.16485 0.116364,-0.097 0.116364,-0.32969 v -4.82909 q 0,-0.69818 -0.08727,-1.23151 -0.08727,-0.53333 -0.339393,-0.90182 -0.242424,-0.36848 -0.698181,-0.55272 -0.455757,-0.19394 -1.183028,-0.19394 -0.32,0 -0.678787,0.0485 -0.349091,0.0388 -0.688484,0.15515 -0.339393,0.10667 -0.649696,0.30061 -0.310302,0.19394 -0.543029,0.48485 v 6.76847 q 0,0.19394 0.116363,0.30061 0.126061,0.097 0.261818,0.14545 l 0.901817,0.42667 v 0.79515 h -4.906659 z"
         style="font-size:21.3333px;line-height:1.25;font-family:'Sitka Small';-inkscape-font-specification:'Sitka Small, Normal';white-space:pre;shape-inside:url(#rect1442);fill:#e8e6e6"
         id="path892" />
      <path
         d="m 98.180671,138.43695 h 1.347876 l 0.290909,0.87273 q 0.05818,0.18424 0.145454,0.3103 0.09697,0.11636 0.22303,0.19394 0.20364,0.11636 0.43636,0.20363 0.23273,0.0873 0.48485,0.15516 0.25212,0.0582 0.52364,0.097 0.27151,0.0291 0.54303,0.0291 0.40727,0 0.84363,-0.0873 0.43636,-0.097 0.79515,-0.2909 0.35879,-0.20364 0.58182,-0.50425 0.23273,-0.3006 0.23273,-0.71757 0,-0.34909 -0.10667,-0.59152 -0.10667,-0.25212 -0.3103,-0.43636 -0.20364,-0.19394 -0.51394,-0.32969 -0.30061,-0.13576 -0.70788,-0.25213 -0.57212,-0.16484 -1.13454,-0.32969 -0.56243,-0.16485 -1.13455,-0.3297 -0.60121,-0.17454 -1.047268,-0.45576 -0.44606,-0.28121 -0.746666,-0.64969 -0.300605,-0.37818 -0.44606,-0.81455 -0.145454,-0.44606 -0.145454,-0.9406 0,-0.69818 0.378181,-1.28969 0.378182,-0.60122 1.008484,-1.03758 0.630303,-0.43636 1.454543,-0.67879 0.82424,-0.24242 1.71636,-0.24242 0.46545,0 0.87273,0.0388 0.41697,0.0291 0.79515,0.097 0.37818,0.0582 0.73697,0.14545 0.35878,0.0873 0.73696,0.19394 v 2.48242 h -1.33818 l -0.2909,-0.9503 q -0.0485,-0.14545 -0.16485,-0.25212 -0.11637,-0.11636 -0.22303,-0.17455 -0.3394,-0.16484 -0.73697,-0.22303 -0.39758,-0.0679 -0.83394,-0.0679 -0.47515,0 -0.87273,0.097 -0.39757,0.0873 -0.68848,0.26182 -0.29091,0.17455 -0.45576,0.43637 -0.15515,0.26181 -0.15515,0.60121 0,0.34909 0.10667,0.6206 0.10667,0.26182 0.34909,0.48485 0.24242,0.21333 0.6206,0.38788 0.38788,0.17454 0.93091,0.33939 0.23273,0.0679 0.46546,0.14546 0.23272,0.0679 0.46545,0.13575 0.23273,0.0679 0.46545,0.14546 0.23273,0.0679 0.46546,0.13575 0.64,0.19394 1.10545,0.43637 0.46545,0.24242 0.76606,0.57212 0.30061,0.32 0.43636,0.73697 0.14546,0.41697 0.14546,0.95999 0,0.78546 -0.40727,1.43515 -0.39758,0.64 -1.05697,1.09576 -0.6497,0.45576 -1.49333,0.70788 -0.83394,0.24242 -1.69697,0.24242 -0.55273,0 -1.06667,-0.0679 -0.51393,-0.0582 -0.989085,-0.16485 -0.465454,-0.097 -0.89212,-0.22303 -0.426666,-0.12606 -0.814544,-0.25212 z"
         style="font-size:21.3333px;line-height:1.25;font-family:'Sitka Small';-inkscape-font-specification:'Sitka Small, Normal';white-space:pre;shape-inside:url(#rect1442);fill:#e8e6e6"
         id="path894" />
      <path
         d="m 108.44972,140.55089 1.21212,-0.42667 q 0.19394,-0.0679 0.28121,-0.15515 0.0873,-0.097 0.0873,-0.29091 v -11.54907 q 0,-0.19394 -0.11637,-0.29091 -0.11636,-0.097 -0.25212,-0.15515 l -1.33818,-0.62061 v -0.82424 h 3.73333 v 5.29454 0.55273 q 0.44606,-0.58182 0.88242,-0.93091 0.44606,-0.34909 0.87273,-0.53333 0.43636,-0.18425 0.86303,-0.24243 0.42666,-0.0582 0.84363,-0.0582 0.70788,0 1.32848,0.20364 0.63031,0.20363 1.09576,0.64 0.46545,0.43636 0.73697,1.11515 0.27151,0.67878 0.27151,1.61939 v 5.7309 q 0,0.23272 0.10667,0.33939 0.10667,0.097 0.25212,0.15515 l 1.11515,0.42667 v 0.79515 h -4.84848 v -0.79515 l 0.9697,-0.42667 q 0.15515,-0.0679 0.26182,-0.16485 0.11636,-0.097 0.11636,-0.32969 v -4.82909 q 0,-0.69818 -0.0873,-1.23151 -0.0873,-0.53333 -0.3394,-0.90182 -0.25212,-0.36848 -0.70787,-0.55272 -0.45576,-0.19394 -1.18303,-0.19394 -0.3394,0 -0.68849,0.0485 -0.34909,0.0388 -0.68848,0.15515 -0.33939,0.10667 -0.64,0.30061 -0.3006,0.19394 -0.53333,0.48485 v 6.76847 q 0,0.19394 0.097,0.28121 0.10666,0.0873 0.27151,0.16485 l 0.90182,0.42667 v 0.79515 h -4.87757 z"
         style="font-size:21.3333px;line-height:1.25;font-family:'Sitka Small';-inkscape-font-specification:'Sitka Small, Normal';white-space:pre;shape-inside:url(#rect1442);fill:#e8e6e6"
         id="path896" />
      <path
         d="m 125.00241,128.68182 q -0.29091,0 -0.56242,-0.0873 -0.26182,-0.0873 -0.46546,-0.24242 -0.20363,-0.16485 -0.3297,-0.39758 -0.11636,-0.24242 -0.11636,-0.55272 0,-0.3297 0.11636,-0.57212 0.12607,-0.25212 0.3297,-0.41697 0.20364,-0.17455 0.46546,-0.25212 0.27151,-0.0873 0.56242,-0.0873 0.34909,0 0.6303,0.0776 0.28121,0.0679 0.47515,0.22303 0.20364,0.15515 0.3103,0.38788 0.11637,0.22303 0.11637,0.53333 0,0.3297 -0.11637,0.59151 -0.11636,0.25213 -0.32,0.43637 -0.20363,0.17454 -0.48484,0.27151 -0.28122,0.0873 -0.61091,0.0873 z m -2.79272,11.86907 1.5806,-0.42667 q 0.16485,-0.0485 0.27151,-0.14545 0.11637,-0.10667 0.11637,-0.30061 v -6.87514 q 0,-0.19394 -0.11637,-0.29091 -0.10666,-0.10666 -0.26181,-0.15515 l -1.57091,-0.52363 v -0.82425 l 3.97575,-0.48484 v 9.15392 q 0,0.19394 0.11636,0.30061 0.11637,0.10666 0.25213,0.14545 l 1.5806,0.42667 v 0.79515 h -5.94423 z"
         style="font-size:21.3333px;line-height:1.25;font-family:'Sitka Small';-inkscape-font-specification:'Sitka Small, Normal';white-space:pre;shape-inside:url(#rect1442);fill:#e8e6e6"
         id="path898" />
      <path
         d="m 129.88967,140.55089 1.23151,-0.42667 q 0.16485,-0.0582 0.26182,-0.15515 0.10667,-0.097 0.10667,-0.29091 v -6.9915 q 0,-0.19394 -0.11637,-0.28121 -0.10666,-0.097 -0.25212,-0.16485 l -1.21212,-0.52364 v -0.82424 l 3.39394,-0.48485 v 1.67758 h 0.15515 q 0.45576,-0.58182 0.90182,-0.93091 0.45575,-0.34909 0.89212,-0.53333 0.44606,-0.18425 0.87272,-0.24243 0.43637,-0.0582 0.85333,-0.0582 0.69819,0 1.31879,0.20364 0.6303,0.20363 1.09576,0.64 0.47515,0.43636 0.74666,1.11515 0.27152,0.67878 0.27152,1.61939 v 5.7309 q 0,0.23272 0.097,0.33939 0.10666,0.10667 0.27151,0.15515 l 1.08606,0.42667 v 0.79515 h -4.84848 v -0.79515 l 0.9697,-0.42667 q 0.16485,-0.0776 0.28121,-0.16485 0.11636,-0.097 0.11636,-0.32969 v -4.82909 q 0,-0.69818 -0.0873,-1.23151 -0.0873,-0.53333 -0.33939,-0.90182 -0.24243,-0.36848 -0.69818,-0.55272 -0.45576,-0.19394 -1.18303,-0.19394 -0.32,0 -0.67879,0.0485 -0.34909,0.0388 -0.68848,0.15515 -0.3394,0.10667 -0.6497,0.30061 -0.3103,0.19394 -0.54303,0.48485 v 6.76847 q 0,0.19394 0.11637,0.30061 0.12606,0.097 0.26181,0.14545 l 0.90182,0.42667 v 0.79515 h -4.90666 z"
         style="font-size:21.3333px;line-height:1.25;font-family:'Sitka Small';-inkscape-font-specification:'Sitka Small, Normal';white-space:pre;shape-inside:url(#rect1442);fill:#e8e6e6"
         id="path900" />
      <path
         d="m 150.56351,140.54119 1.66787,-0.54303 q 0.16485,-0.0582 0.25212,-0.15515 0.0873,-0.097 0.0873,-0.3103 V 129.06 q 0,-0.19394 -0.10667,-0.29091 -0.097,-0.097 -0.23273,-0.14546 l -1.66787,-0.56242 v -0.78545 h 6.14787 v 0.78545 l -1.65818,0.56242 q -0.15516,0.0485 -0.26182,0.14546 -0.097,0.097 -0.097,0.29091 v 10.47271 q 0,0.21333 0.10667,0.32 0.10666,0.097 0.25212,0.14545 l 1.65818,0.54303 v 0.80485 h -6.14787 z"
         style="font-size:21.3333px;line-height:1.25;font-family:'Sitka Small';-inkscape-font-specification:'Sitka Small, Normal';white-space:pre;shape-inside:url(#rect1442);fill:#e8e6e6"
         id="path902" />
      <path
         d="m 158.99982,140.55089 1.22182,-0.42667 q 0.13576,-0.0485 0.25212,-0.14545 0.11636,-0.10667 0.11636,-0.30061 v -6.9915 q 0,-0.19394 -0.11636,-0.29091 -0.11636,-0.097 -0.25212,-0.15515 l -1.22182,-0.52364 v -0.82424 l 3.40363,-0.48485 v 1.67758 h 0.15516 q 0.44606,-0.58182 0.89212,-0.93091 0.44606,-0.34909 0.88242,-0.53333 0.43636,-0.18425 0.85333,-0.24243 0.41697,-0.0582 0.81454,-0.0582 0.52364,0 0.99879,0.11636 0.48485,0.10667 0.89212,0.34909 0.40727,0.23273 0.72727,0.62061 0.32,0.37818 0.51394,0.93091 0.54303,-0.70788 1.02788,-1.10546 0.48485,-0.40727 0.92121,-0.6109 0.43636,-0.20364 0.83394,-0.25212 0.39757,-0.0485 0.77575,-0.0485 0.68849,0 1.2994,0.20364 0.6206,0.20363 1.07636,0.64 0.46545,0.43636 0.73697,1.11515 0.27151,0.67878 0.27151,1.61939 v 5.7309 q 0,0.23272 0.10667,0.33939 0.10666,0.097 0.26181,0.15515 l 1.08606,0.42667 v 0.79515 h -4.83878 v -0.79515 l 0.9794,-0.42667 q 0.15515,-0.0679 0.26181,-0.16485 0.11637,-0.097 0.11637,-0.32969 v -4.82909 q 0,-0.69818 -0.0873,-1.23151 -0.0776,-0.53333 -0.32,-0.90182 -0.24242,-0.36848 -0.68848,-0.55272 -0.43636,-0.19394 -1.14424,-0.19394 -0.29091,0 -0.6303,0.0485 -0.3297,0.0388 -0.65939,0.15515 -0.3297,0.11637 -0.64,0.31031 -0.30061,0.19394 -0.53334,0.49454 v 6.7006 q 0,0.23272 0.10667,0.32969 0.10667,0.0873 0.26182,0.16485 l 0.86303,0.42667 v 0.79515 h -4.57697 v -0.79515 l 0.94061,-0.42667 q 0.16485,-0.0776 0.27151,-0.16485 0.10667,-0.097 0.10667,-0.32969 v -4.82909 q 0,-0.69818 -0.0873,-1.23151 -0.0776,-0.53333 -0.32,-0.90182 -0.23273,-0.36848 -0.66909,-0.55272 -0.43636,-0.19394 -1.13454,-0.19394 -0.32,0 -0.66909,0.0485 -0.3394,0.0388 -0.66909,0.15515 -0.3297,0.10667 -0.63031,0.30061 -0.3006,0.19394 -0.52363,0.48485 v 6.76847 q 0,0.19394 0.11636,0.29091 0.11636,0.0873 0.25212,0.15515 l 0.89212,0.42667 v 0.79515 h -4.87757 z"
         style="font-size:21.3333px;line-height:1.25;font-family:'Sitka Small';-inkscape-font-specification:'Sitka Small, Normal';white-space:pre;shape-inside:url(#rect1442);fill:#e8e6e6"
         id="path904" />
      <path
         d="m 179.22764,145.41876 1.28,-0.45576 q 0.16484,-0.0582 0.26181,-0.14545 0.10667,-0.0873 0.10667,-0.28121 v -11.84968 q 0,-0.19394 -0.11636,-0.29091 -0.11637,-0.097 -0.25212,-0.15515 l -1.22182,-0.52364 v -0.82424 l 3.41333,-0.48485 v 1.77455 h 0.16485 q 0.42666,-0.64 0.9309,-1.00849 0.50424,-0.37818 0.98909,-0.56242 0.48485,-0.19394 0.91152,-0.24242 0.42666,-0.0485 0.70787,-0.0485 0.99879,0 1.79394,0.39758 0.79515,0.38787 1.34788,1.08605 0.55272,0.68849 0.84363,1.63879 0.30061,0.9503 0.30061,2.05575 0,1.23152 -0.34909,2.31758 -0.34909,1.08606 -1.00849,1.8909 -0.65939,0.80485 -1.60969,1.28 -0.9503,0.46545 -2.14303,0.46545 -0.46545,0 -0.87272,-0.0873 -0.39758,-0.0873 -0.73697,-0.23273 -0.3297,-0.14545 -0.60121,-0.32969 -0.26182,-0.19394 -0.46546,-0.39758 v 0.46546 3.64605 q 0,0.19394 0.11637,0.28121 0.11636,0.097 0.26181,0.14546 l 1.55152,0.47515 v 0.78545 h -5.60484 z m 3.67514,-5.81817 q 0.23273,0.13575 0.55273,0.23272 0.32,0.0873 0.6497,0.14546 0.33939,0.0582 0.64969,0.0873 0.3103,0.0194 0.51394,0.0194 0.83394,0 1.44485,-0.3006 0.6206,-0.3103 1.01818,-0.84364 0.40727,-0.53333 0.60121,-1.24121 0.20363,-0.71757 0.20363,-1.52242 0,-0.91151 -0.19394,-1.69697 -0.18424,-0.79515 -0.59151,-1.37696 -0.39757,-0.58182 -1.00848,-0.91152 -0.61091,-0.33939 -1.45455,-0.33939 -0.25212,0 -0.57212,0.0582 -0.32,0.0582 -0.64969,0.19394 -0.32,0.12606 -0.6303,0.34909 -0.31031,0.22303 -0.53334,0.54303 z"
         style="font-size:21.3333px;line-height:1.25;font-family:'Sitka Small';-inkscape-font-specification:'Sitka Small, Normal';white-space:pre;shape-inside:url(#rect1442);fill:#e8e6e6"
         id="path906" />
      <path
         d="m 200.02759,139.72665 q -0.42667,0.59151 -0.93091,0.9503 -0.49454,0.35879 -0.99878,0.55272 -0.50425,0.19394 -0.98909,0.25212 -0.47515,0.0679 -0.86303,0.0679 -0.75636,0 -1.34788,-0.25212 -0.58182,-0.26181 -0.98909,-0.67878 -0.39757,-0.42667 -0.61091,-0.9697 -0.21333,-0.55273 -0.21333,-1.14424 0,-0.68848 0.24242,-1.22182 0.24243,-0.54303 0.64,-0.9503 0.40728,-0.40727 0.93091,-0.68848 0.53333,-0.29091 1.10545,-0.46546 0.58182,-0.18424 1.16364,-0.26181 0.59151,-0.0873 1.10545,-0.0873 0.10667,0 0.34909,0.0194 0.24243,0.0194 0.50424,0.0485 0.27152,0.0291 0.50425,0.0582 0.23272,0.0291 0.33939,0.0388 v -1.33818 q 0,-0.57212 -0.16485,-0.96 -0.15515,-0.38787 -0.43636,-0.6206 -0.28121,-0.24242 -0.66909,-0.33939 -0.38788,-0.10667 -0.84364,-0.10667 -0.49454,0 -1.00848,0.18424 -0.51394,0.17455 -0.98909,0.42667 -0.46545,0.24242 -0.87273,0.51394 -0.39757,0.27151 -0.66909,0.44606 h -0.43636 v -2.00727 q 0.46546,-0.15515 0.92121,-0.31031 0.45576,-0.15515 0.96,-0.28121 0.51394,-0.12606 1.08606,-0.20363 0.58182,-0.0776 1.29939,-0.0776 0.73697,0 1.43515,0.14545 0.69818,0.13576 1.23151,0.51394 0.54303,0.37818 0.86303,1.04727 0.3297,0.66909 0.3297,1.72606 v 5.47878 q 0,0.19394 0.0873,0.35879 0.0873,0.15515 0.22303,0.27151 0.13576,0.11637 0.3103,0.18425 0.17455,0.0582 0.3394,0.0582 0.11636,0 0.23272,-0.0291 0.11637,-0.0291 0.24243,-0.0776 0.12606,-0.0485 0.24242,-0.10667 0.12606,-0.0679 0.24243,-0.12606 h 0.17454 v 0.92121 q -0.14545,0.10667 -0.38788,0.25213 -0.24242,0.14545 -0.53333,0.28121 -0.28121,0.13575 -0.57212,0.23272 -0.28121,0.097 -0.51394,0.097 -0.47515,0 -0.83394,-0.11636 -0.35878,-0.11636 -0.60121,-0.33939 -0.23272,-0.23273 -0.35878,-0.57212 -0.11637,-0.3394 -0.11637,-0.79515 z m -0.0582,-3.71394 q -1.05697,0 -1.9297,0.0776 -0.87272,0.0776 -1.49333,0.3103 -0.6206,0.22303 -0.96969,0.6497 -0.3394,0.41697 -0.3394,1.11515 0,0.55272 0.18425,0.92121 0.18424,0.36848 0.46545,0.58181 0.28121,0.21334 0.6303,0.30061 0.34909,0.0873 0.67879,0.0873 0.3297,0 0.71757,-0.0679 0.39758,-0.0679 0.77576,-0.20363 0.38788,-0.14546 0.71758,-0.35879 0.33939,-0.21333 0.56242,-0.51394 z"
         style="font-size:21.3333px;line-height:1.25;font-family:'Sitka Small';-inkscape-font-specification:'Sitka Small, Normal';white-space:pre;shape-inside:url(#rect1442);fill:#e8e6e6"
         id="path908" />
      <path
         d="m 214.71847,138.5921 v 1.23152 q -0.37818,0.3006 -0.82424,0.6109 -0.44606,0.31031 -0.9697,0.56243 -0.52363,0.25212 -1.12484,0.40727 -0.60122,0.16485 -1.2897,0.16485 -1.16363,0 -2.09454,-0.39758 -0.93091,-0.40727 -1.5903,-1.12484 -0.6497,-0.72728 -0.99879,-1.73576 -0.34909,-1.00848 -0.34909,-2.2303 0,-0.86303 0.23273,-1.61939 0.23273,-0.76606 0.64,-1.39636 0.40727,-0.64 0.96,-1.14424 0.55272,-0.51394 1.18302,-0.86303 0.64,-0.34909 1.32849,-0.53333 0.68848,-0.18425 1.37696,-0.18425 0.57212,0 1.05697,0.097 0.48485,0.0873 0.87273,0.22303 0.39757,0.12606 0.68848,0.26182 0.29091,0.13576 0.48485,0.22303 v 2.09454 h -0.49454 q -0.39758,-0.22303 -0.77576,-0.47515 -0.37818,-0.25212 -0.80485,-0.46545 -0.41697,-0.21333 -0.91151,-0.34909 -0.48485,-0.14546 -1.10545,-0.14546 -0.17455,0 -0.39758,0.0485 -0.22303,0.0388 -0.45576,0.12606 -0.22303,0.0776 -0.42666,0.20364 -0.20364,0.11636 -0.3394,0.27151 -0.17454,0.18424 -0.33939,0.42667 -0.16485,0.23272 -0.30061,0.6109 -0.12606,0.36849 -0.20363,0.92122 -0.0776,0.55272 -0.0776,1.35757 0,0.99879 0.22303,1.78424 0.22303,0.78545 0.6497,1.32848 0.43636,0.54303 1.07636,0.83394 0.64,0.28121 1.48363,0.28121 0.52364,0 0.98909,-0.14545 0.47515,-0.14546 0.88243,-0.34909 0.41697,-0.21334 0.76606,-0.45576 0.34909,-0.25212 0.6303,-0.45576 z"
         style="font-size:21.3333px;line-height:1.25;font-family:'Sitka Small';-inkscape-font-specification:'Sitka Small, Normal';white-space:pre;shape-inside:url(#rect1442);fill:#e8e6e6"
         id="path910" />
      <path
         d="m 218.02509,131.81393 h -1.73575 v -1.01818 q 0.42666,-0.0582 0.76606,-0.11636 0.34909,-0.0582 0.60121,-0.21334 0.25212,-0.15515 0.39757,-0.43636 0.15515,-0.29091 0.18424,-0.81454 l 0.097,-1.50303 1.71637,-0.3103 v 3.19999 h 3.8012 v 1.21212 h -3.8012 v 6.82666 q 0,0.35878 0.21333,0.61091 0.22303,0.24242 0.53333,0.39757 0.3103,0.15515 0.6497,0.23273 0.33939,0.0679 0.59151,0.0679 0.17455,0 0.38788,-0.0291 0.22303,-0.0388 0.42666,-0.0873 0.21334,-0.0485 0.39758,-0.10666 0.18424,-0.0582 0.29091,-0.10667 h 0.39757 v 0.87273 q -0.13575,0.0873 -0.45575,0.26181 -0.31031,0.16485 -0.72727,0.3394 -0.40728,0.17454 -0.88243,0.3006 -0.47515,0.12606 -0.92121,0.12606 -0.58182,0 -1.11515,-0.14545 -0.52363,-0.14546 -0.93091,-0.41697 -0.39757,-0.27152 -0.63999,-0.65939 -0.24243,-0.39758 -0.24243,-0.89212 z"
         style="font-size:21.3333px;line-height:1.25;font-family:'Sitka Small';-inkscape-font-specification:'Sitka Small, Normal';white-space:pre;shape-inside:url(#rect1442);fill:#e8e6e6"
         id="path912" />
      <path
         d="m 226.43233,140.05634 q 0,-0.32969 0.11637,-0.61091 0.12606,-0.28121 0.32969,-0.49454 0.21334,-0.21333 0.49455,-0.3297 0.28121,-0.12606 0.61091,-0.12606 0.32969,0 0.6109,0.12606 0.29091,0.11637 0.50425,0.3297 0.21333,0.21333 0.32969,0.49454 0.12606,0.28122 0.12606,0.61091 0,0.3297 -0.12606,0.61091 -0.11636,0.28121 -0.32969,0.48485 -0.21334,0.20363 -0.50425,0.32 -0.28121,0.11636 -0.6109,0.11636 -0.3297,0 -0.61091,-0.11636 -0.28121,-0.11637 -0.49455,-0.32 -0.20363,-0.20364 -0.32969,-0.48485 -0.11637,-0.28121 -0.11637,-0.61091 z"
         style="font-size:21.3333px;line-height:1.25;font-family:'Sitka Small';-inkscape-font-specification:'Sitka Small, Normal';white-space:pre;shape-inside:url(#rect1442);fill:#e8e6e6"
         id="path914" />
      <path
         d="m 233.1523,129.03091 q -0.0679,-0.13576 -0.16484,-0.27152 -0.0873,-0.13576 -0.25212,-0.21333 l -1.01818,-0.48485 v -0.78545 h 5.16847 v 0.78545 l -1.65818,0.6497 2.72485,8.5818 0.25212,1.32848 h 0.22303 l 2.80242,-8.48483 1.03757,-2.56969 h 1.63879 l 3.1709,9.72604 0.29091,1.32848 h 0.20364 l 3.20969,-9.84241 -1.69697,-0.71757 v -0.78545 h 4.57696 v 0.78545 l -0.99878,0.52364 q -0.13576,0.0776 -0.27152,0.21333 -0.13576,0.12606 -0.18424,0.27151 l -3.33575,9.8812 -0.99879,2.5309 h -1.65818 l -3.14181,-9.73574 -0.32,-1.30909 h -0.19394 l -2.81212,8.51393 -1.02787,2.5309 h -1.67758 z"
         style="font-size:21.3333px;line-height:1.25;font-family:'Sitka Small';-inkscape-font-specification:'Sitka Small, Normal';white-space:pre;shape-inside:url(#rect1442);fill:#e8e6e6"
         id="path916" />
      <path
         d="m 257.67586,128.68182 q -0.29091,0 -0.56243,-0.0873 -0.26182,-0.0873 -0.46545,-0.24242 -0.20364,-0.16485 -0.3297,-0.39758 -0.11636,-0.24242 -0.11636,-0.55272 0,-0.3297 0.11636,-0.57212 0.12606,-0.25212 0.3297,-0.41697 0.20363,-0.17455 0.46545,-0.25212 0.27152,-0.0873 0.56243,-0.0873 0.34909,0 0.6303,0.0776 0.28121,0.0679 0.47515,0.22303 0.20363,0.15515 0.3103,0.38788 0.11636,0.22303 0.11636,0.53333 0,0.3297 -0.11636,0.59151 -0.11636,0.25213 -0.32,0.43637 -0.20364,0.17454 -0.48485,0.27151 -0.28121,0.0873 -0.6109,0.0873 z m -2.79273,11.86907 1.58061,-0.42667 q 0.16484,-0.0485 0.27151,-0.14545 0.11636,-0.10667 0.11636,-0.30061 v -6.87514 q 0,-0.19394 -0.11636,-0.29091 -0.10667,-0.10666 -0.26182,-0.15515 l -1.5709,-0.52363 v -0.82425 l 3.97575,-0.48484 v 9.15392 q 0,0.19394 0.11636,0.30061 0.11636,0.10666 0.25212,0.14545 l 1.58061,0.42667 v 0.79515 h -5.94424 z"
         style="font-size:21.3333px;line-height:1.25;font-family:'Sitka Small';-inkscape-font-specification:'Sitka Small, Normal';white-space:pre;shape-inside:url(#rect1442);fill:#e8e6e6"
         id="path918" />
      <path
         d="m 262.56312,140.55089 1.23151,-0.42667 q 0.16485,-0.0582 0.26182,-0.15515 0.10666,-0.097 0.10666,-0.29091 v -6.9915 q 0,-0.19394 -0.11636,-0.28121 -0.10667,-0.097 -0.25212,-0.16485 l -1.21212,-0.52364 v -0.82424 l 3.39394,-0.48485 v 1.67758 h 0.15515 q 0.45575,-0.58182 0.90181,-0.93091 0.45576,-0.34909 0.89212,-0.53333 0.44606,-0.18425 0.87273,-0.24243 0.43636,-0.0582 0.85333,-0.0582 0.69818,0 1.31879,0.20364 0.6303,0.20363 1.09575,0.64 0.47515,0.43636 0.74667,1.11515 0.27151,0.67878 0.27151,1.61939 v 5.7309 q 0,0.23272 0.097,0.33939 0.10667,0.10667 0.27152,0.15515 l 1.08606,0.42667 v 0.79515 h -4.84848 v -0.79515 l 0.96969,-0.42667 q 0.16485,-0.0776 0.28122,-0.16485 0.11636,-0.097 0.11636,-0.32969 v -4.82909 q 0,-0.69818 -0.0873,-1.23151 -0.0873,-0.53333 -0.3394,-0.90182 -0.24242,-0.36848 -0.69818,-0.55272 -0.45575,-0.19394 -1.18303,-0.19394 -0.32,0 -0.67878,0.0485 -0.34909,0.0388 -0.68849,0.15515 -0.33939,0.10667 -0.64969,0.30061 -0.3103,0.19394 -0.54303,0.48485 v 6.76847 q 0,0.19394 0.11636,0.30061 0.12606,0.097 0.26182,0.14545 l 0.90182,0.42667 v 0.79515 h -4.90666 z"
         style="font-size:21.3333px;line-height:1.25;font-family:'Sitka Small';-inkscape-font-specification:'Sitka Small, Normal';white-space:pre;shape-inside:url(#rect1442);fill:#e8e6e6"
         id="path920" />
      <path
         d="m 284.49759,139.72665 h -0.16485 q -0.43636,0.64969 -0.9406,1.01818 -0.50424,0.36848 -0.99879,0.55272 -0.48485,0.17455 -0.91151,0.21334 -0.42667,0.0388 -0.71758,0.0388 -0.98909,0 -1.78424,-0.38787 -0.78545,-0.39758 -1.33818,-1.09576 -0.54303,-0.69818 -0.83393,-1.64848 -0.29091,-0.9503 -0.29091,-2.06545 0,-1.24121 0.34909,-2.33697 0.35879,-1.10545 1.01818,-1.92 0.65939,-0.82424 1.60969,-1.29939 0.9503,-0.47515 2.14303,-0.47515 0.47515,0 0.86303,0.0873 0.39757,0.0873 0.72727,0.23273 0.3297,0.14545 0.59151,0.33939 0.26182,0.18425 0.46546,0.38788 v -0.46545 -2.77333 q 0,-0.19394 -0.10667,-0.29091 -0.097,-0.097 -0.25212,-0.15515 l -1.60969,-0.62061 v -0.82424 h 3.99514 v 13.02301 q 0,0.19394 0.11636,0.29091 0.12607,0.097 0.26182,0.15515 l 1.22182,0.52364 v 0.82424 l -3.41333,0.48485 v 0 z m -0.21333,-7.56363 q -0.19394,-0.12606 -0.51394,-0.21333 -0.3103,-0.0873 -0.6497,-0.14546 -0.32969,-0.0582 -0.64969,-0.0776 -0.3103,-0.0291 -0.51394,-0.0291 -0.84364,0 -1.46424,0.32 -0.61091,0.3103 -1.01818,0.85333 -0.39758,0.53333 -0.60121,1.25091 -0.19394,0.71757 -0.19394,1.53212 0,0.9309 0.18424,1.72605 0.18424,0.79515 0.57212,1.38667 0.38788,0.59151 0.99879,0.93091 0.61091,0.32969 1.46424,0.32969 0.26182,0 0.59151,-0.0582 0.3297,-0.0679 0.65939,-0.19394 0.3394,-0.13576 0.64,-0.33939 0.30061,-0.20364 0.49455,-0.49455 z"
         style="font-size:21.3333px;line-height:1.25;font-family:'Sitka Small';-inkscape-font-specification:'Sitka Small, Normal';white-space:pre;shape-inside:url(#rect1442);fill:#e8e6e6"
         id="path922" />
      <path
         d="m 290.18001,138.43695 h 1.34787 l 0.29091,0.87273 q 0.0582,0.18424 0.14546,0.3103 0.097,0.11636 0.22303,0.19394 0.20363,0.11636 0.43636,0.20363 0.23273,0.0873 0.48485,0.15516 0.25212,0.0582 0.52363,0.097 0.27152,0.0291 0.54303,0.0291 0.40727,0 0.84364,-0.0873 0.43636,-0.097 0.79515,-0.2909 0.35878,-0.20364 0.58181,-0.50425 0.23273,-0.3006 0.23273,-0.71757 0,-0.34909 -0.10666,-0.59152 -0.10667,-0.25212 -0.31031,-0.43636 -0.20363,-0.19394 -0.51394,-0.32969 -0.3006,-0.13576 -0.70787,-0.25213 -0.57212,-0.16484 -1.13455,-0.32969 -0.56242,-0.16485 -1.13454,-0.3297 -0.60121,-0.17454 -1.04727,-0.45576 -0.44606,-0.28121 -0.74667,-0.64969 -0.3006,-0.37818 -0.44606,-0.81455 -0.14545,-0.44606 -0.14545,-0.9406 0,-0.69818 0.37818,-1.28969 0.37818,-0.60122 1.00848,-1.03758 0.6303,-0.43636 1.45455,-0.67879 0.82424,-0.24242 1.71636,-0.24242 0.46545,0 0.87272,0.0388 0.41697,0.0291 0.79515,0.097 0.37818,0.0582 0.73697,0.14545 0.35879,0.0873 0.73697,0.19394 v 2.48242 h -1.33818 l -0.29091,-0.9503 q -0.0485,-0.14545 -0.16485,-0.25212 -0.11636,-0.11636 -0.22303,-0.17455 -0.33939,-0.16484 -0.73696,-0.22303 -0.39758,-0.0679 -0.83394,-0.0679 -0.47515,0 -0.87273,0.097 -0.39757,0.0873 -0.68848,0.26182 -0.29091,0.17455 -0.45576,0.43637 -0.15515,0.26181 -0.15515,0.60121 0,0.34909 0.10667,0.6206 0.10666,0.26182 0.34909,0.48485 0.24242,0.21333 0.6206,0.38788 0.38788,0.17454 0.93091,0.33939 0.23273,0.0679 0.46545,0.14546 0.23273,0.0679 0.46546,0.13575 0.23272,0.0679 0.46545,0.14546 0.23273,0.0679 0.46545,0.13575 0.64,0.19394 1.10546,0.43637 0.46545,0.24242 0.76606,0.57212 0.3006,0.32 0.43636,0.73697 0.14545,0.41697 0.14545,0.95999 0,0.78546 -0.40727,1.43515 -0.39757,0.64 -1.05697,1.09576 -0.64969,0.45576 -1.49333,0.70788 -0.83394,0.24242 -1.69696,0.24242 -0.55273,0 -1.06667,-0.0679 -0.51394,-0.0582 -0.98909,-0.16485 -0.46545,-0.097 -0.89212,-0.22303 -0.42666,-0.12606 -0.81454,-0.25212 z"
         style="font-size:21.3333px;line-height:1.25;font-family:'Sitka Small';-inkscape-font-specification:'Sitka Small, Normal';white-space:pre;shape-inside:url(#rect1442);fill:#e8e6e6"
         id="path924" />
      <path
         d="m 305.95691,141.58846 q -1.16363,0 -2.13333,-0.38788 -0.96,-0.38787 -1.64848,-1.10545 -0.68848,-0.72727 -1.06666,-1.76485 -0.37819,-1.04727 -0.37819,-2.35636 0,-1.20242 0.36849,-2.23029 0.37818,-1.03758 1.06666,-1.79394 0.69818,-0.76606 1.67758,-1.19273 0.98909,-0.43636 2.2109,-0.43636 1.32849,0 2.30788,0.45576 0.98909,0.45575 1.62909,1.23151 0.64969,0.76606 0.96969,1.78424 0.32,1.01818 0.32,2.14303 0,1.19272 -0.37818,2.2303 -0.36848,1.02787 -1.05697,1.79393 -0.68848,0.75637 -1.67757,1.19273 -0.97939,0.43636 -2.21091,0.43636 z m 0.14546,-1.19272 q 0.85333,0 1.42545,-0.38788 0.57212,-0.39758 0.90182,-1.00849 0.33939,-0.6206 0.47515,-1.36727 0.14545,-0.75636 0.14545,-1.48363 0,-0.88242 -0.17454,-1.71636 -0.16485,-0.83394 -0.54303,-1.48363 -0.37818,-0.6497 -0.9794,-1.03758 -0.59151,-0.39757 -1.44484,-0.39757 -0.57212,0 -1.00849,0.18424 -0.43636,0.17454 -0.76605,0.48485 -0.3297,0.3103 -0.55273,0.72727 -0.22303,0.40727 -0.36849,0.87272 -0.13575,0.46546 -0.19393,0.9697 -0.0582,0.49454 -0.0582,0.96969 0,0.53334 0.0582,1.08606 0.0679,0.55273 0.21333,1.07636 0.15515,0.51394 0.38788,0.9697 0.24242,0.45576 0.59151,0.80485 0.34909,0.33939 0.81455,0.54303 0.47515,0.19394 1.07636,0.19394 z"
         style="font-size:21.3333px;line-height:1.25;font-family:'Sitka Small';-inkscape-font-specification:'Sitka Small, Normal';white-space:pre;shape-inside:url(#rect1442);fill:#e8e6e6"
         id="path926" />
      <path
         d="m 313.44295,140.55089 1.23152,-0.42667 q 0.16485,-0.0582 0.26182,-0.15515 0.10666,-0.097 0.10666,-0.29091 v -6.9915 q 0,-0.19394 -0.11636,-0.28121 -0.10667,-0.097 -0.25212,-0.16485 l -1.21212,-0.52364 v -0.82424 l 3.39393,-0.48485 v 1.67758 h 0.15515 q 0.45576,-0.58182 0.90182,-0.93091 0.45576,-0.34909 0.89212,-0.53333 0.44606,-0.18425 0.87273,-0.24243 0.43636,-0.0582 0.85333,-0.0582 0.69818,0 1.31878,0.20364 0.63031,0.20363 1.09576,0.64 0.47515,0.43636 0.74667,1.11515 0.27151,0.67878 0.27151,1.61939 v 5.7309 q 0,0.23272 0.097,0.33939 0.10667,0.10667 0.27151,0.15515 l 1.08606,0.42667 v 0.79515 h -4.84847 v -0.79515 l 0.96969,-0.42667 q 0.16485,-0.0776 0.28121,-0.16485 0.11637,-0.097 0.11637,-0.32969 v -4.82909 q 0,-0.69818 -0.0873,-1.23151 -0.0873,-0.53333 -0.33939,-0.90182 -0.24242,-0.36848 -0.69818,-0.55272 -0.45576,-0.19394 -1.18303,-0.19394 -0.32,0 -0.67879,0.0485 -0.34909,0.0388 -0.68848,0.15515 -0.33939,0.10667 -0.6497,0.30061 -0.3103,0.19394 -0.54302,0.48485 v 6.76847 q 0,0.19394 0.11636,0.30061 0.12606,0.097 0.26182,0.14545 l 0.90181,0.42667 v 0.79515 h -4.90666 z"
         style="font-size:21.3333px;line-height:1.25;font-family:'Sitka Small';-inkscape-font-specification:'Sitka Small, Normal';white-space:pre;shape-inside:url(#rect1442);fill:#e8e6e6"
         id="path928" />
      <path
         d="m 329.29744,140.93877 q -0.26182,-0.0873 -0.54303,-0.24243 -0.27152,-0.15515 -0.49455,-0.37818 -0.22303,-0.23273 -0.36848,-0.53333 -0.14546,-0.3103 -0.14546,-0.69818 0,-0.46546 0.15516,-0.82424 0.16484,-0.36849 0.42666,-0.63031 0.26182,-0.26181 0.58182,-0.42666 0.3297,-0.17455 0.6497,-0.24243 v -0.13575 q -0.24243,-0.14546 -0.54303,-0.37818 -0.29091,-0.23273 -0.55273,-0.57212 -0.26182,-0.3394 -0.43636,-0.78546 -0.17455,-0.44606 -0.17455,-1.01818 0,-0.83394 0.29091,-1.52242 0.30061,-0.69818 0.85333,-1.19273 0.56243,-0.49454 1.35758,-0.76605 0.79515,-0.27152 1.79393,-0.27152 0.77576,0 1.35758,0.0776 0.59151,0.0776 1.15393,0.20363 h 3.44242 v 1.23152 h -2.40484 v 0.11636 q 0.16485,0.24242 0.3006,0.45576 0.14546,0.20363 0.25212,0.44606 0.10667,0.24242 0.16485,0.54302 0.0679,0.29091 0.0679,0.70788 0,0.75637 -0.3006,1.40606 -0.29091,0.64 -0.85334,1.11515 -0.56242,0.47515 -1.37696,0.74667 -0.81455,0.26181 -1.85212,0.26181 -0.3297,0 -0.6594,-0.0388 -0.31999,-0.0388 -0.60121,-0.0873 -0.27151,-0.0582 -0.49454,-0.12606 -0.21333,-0.0679 -0.3297,-0.12606 -0.10666,0.0582 -0.21333,0.15515 -0.10667,0.097 -0.19394,0.23273 -0.0873,0.13576 -0.14545,0.32 -0.0485,0.18424 -0.0485,0.39758 0,0.17454 0.0582,0.34909 0.0679,0.16484 0.16485,0.32 0.10667,0.14545 0.24242,0.26181 0.13576,0.11637 0.27152,0.17455 h 3.79151 q 1.03757,0 1.74545,0.24242 0.70788,0.23273 1.13454,0.62061 0.43637,0.38788 0.62061,0.87272 0.19394,0.47515 0.19394,0.96 0,0.89212 -0.44606,1.62909 -0.43636,0.74667 -1.20242,1.28 -0.76606,0.53333 -1.80364,0.83394 -1.03757,0.3006 -2.2303,0.3006 -1.02787,0 -1.9103,-0.18424 -0.88242,-0.17455 -1.53212,-0.52364 -0.64969,-0.33939 -1.01818,-0.84363 -0.36848,-0.50424 -0.36848,-1.15394 0,-0.49454 0.17455,-0.89212 0.18424,-0.38788 0.47515,-0.68848 0.3006,-0.30061 0.68848,-0.50424 0.39757,-0.20364 0.83394,-0.31031 z m 2.78302,-4.30545 q 0.54303,0 0.9697,-0.14546 0.43636,-0.15515 0.73697,-0.47515 0.3006,-0.32969 0.45575,-0.84363 0.16485,-0.51394 0.16485,-1.23152 0,-0.67878 -0.16485,-1.16363 -0.16484,-0.49454 -0.46545,-0.81454 -0.3006,-0.32 -0.72727,-0.46546 -0.41697,-0.15515 -0.93091,-0.15515 -0.39757,0 -0.78545,0.12606 -0.37818,0.12606 -0.67879,0.42667 -0.3006,0.3006 -0.48485,0.80484 -0.18424,0.49455 -0.18424,1.24121 0,0.71758 0.15515,1.23152 0.15515,0.51394 0.42667,0.84363 0.28121,0.32 0.66909,0.47515 0.38788,0.14546 0.84363,0.14546 z m -1.73575,4.51878 q -0.20364,0.0582 -0.41697,0.19394 -0.21333,0.14545 -0.38788,0.35878 -0.17454,0.22303 -0.29091,0.52364 -0.11636,0.3103 -0.11636,0.69818 0,0.40727 0.15515,0.71758 0.16485,0.32 0.42667,0.54303 0.27151,0.23272 0.6109,0.37818 0.3394,0.15515 0.69819,0.24242 0.36848,0.097 0.72727,0.13576 0.35878,0.0388 0.64969,0.0388 0.64,0 1.26061,-0.11637 0.6303,-0.11636 1.12484,-0.38788 0.49455,-0.26181 0.79515,-0.68848 0.31031,-0.42667 0.31031,-1.05697 0,-0.26182 -0.12606,-0.54303 -0.11637,-0.28121 -0.36849,-0.51394 -0.25212,-0.22303 -0.65939,-0.36848 -0.39758,-0.15515 -0.9503,-0.15515 z"
         style="font-size:21.3333px;line-height:1.25;font-family:'Sitka Small';-inkscape-font-specification:'Sitka Small, Normal';white-space:pre;shape-inside:url(#rect1442);fill:#e8e6e6"
         id="path930" />
      <path
         d="m 340.12891,140.54119 1.57091,-0.54303 q 0.12606,-0.0485 0.23273,-0.14545 0.10666,-0.10667 0.10666,-0.32 V 129.06 q 0,-0.19394 -0.097,-0.29091 -0.097,-0.097 -0.24242,-0.14546 l -1.57091,-0.56242 v -0.78545 h 5.95393 v 0.78545 l -1.56121,0.56242 q -0.14545,0.0485 -0.25212,0.14546 -0.10666,0.097 -0.10666,0.29091 v 10.96725 h 5.03272 q 0.0679,0 0.13575,-0.0194 0.0776,-0.0291 0.13576,-0.0679 0.0582,-0.0485 0.097,-0.11636 0.0485,-0.0776 0.0582,-0.17455 l 0.33939,-2.93818 h 1.36728 v 4.63515 h -11.19999 z"
         style="font-size:21.3333px;line-height:1.25;font-family:'Sitka Small';-inkscape-font-specification:'Sitka Small, Normal';white-space:pre;shape-inside:url(#rect1442);fill:#e8e6e6"
         id="path932" />
      <path
         d="m 352.55069,143.81876 h 0.51394 q 0.12606,0.0679 0.32969,0.13576 0.20364,0.0776 0.41697,0.13576 0.21334,0.0679 0.39758,0.10666 0.19394,0.0388 0.29091,0.0388 0.52363,0 0.86303,-0.0776 0.33939,-0.0776 0.59151,-0.27151 0.17455,-0.13576 0.32,-0.34909 0.15515,-0.21333 0.3103,-0.55273 0.16485,-0.33939 0.35879,-0.83394 0.19394,-0.49454 0.44606,-1.18302 l -0.68848,-1.08606 -3.42303,-7.67999 q -0.0776,-0.17455 -0.19394,-0.27152 -0.11636,-0.10666 -0.27151,-0.16484 l -0.78546,-0.38788 v -0.77576 h 4.70303 v 0.77576 l -1.45455,0.52363 2.48242,5.44969 0.45576,1.21212 h 0.21333 l 2.42424,-6.30302 -1.29939,-0.88242 v -0.77576 h 4.03393 v 0.77576 l -0.91151,0.67879 q -0.10667,0.0776 -0.26182,0.20363 -0.14545,0.11636 -0.19394,0.25212 l -4.09211,10.5018 q -0.36849,0.95031 -0.80485,1.56121 -0.42667,0.62061 -0.92121,0.9794 -0.49454,0.36848 -1.04727,0.50424 -0.54303,0.14545 -1.13454,0.14545 -0.10667,0 -0.3297,-0.0194 -0.21333,-0.0194 -0.47515,-0.0485 -0.25212,-0.0291 -0.49455,-0.0776 -0.23272,-0.0388 -0.36848,-0.0873 z"
         style="font-size:21.3333px;line-height:1.25;font-family:'Sitka Small';-inkscape-font-specification:'Sitka Small, Normal';white-space:pre;shape-inside:url(#rect1442);fill:#e8e6e6"
         id="path934" />
      <path
         d="m 365.1373,140.55089 1.22181,-0.42667 q 0.15516,-0.0485 0.26182,-0.14545 0.10667,-0.10667 0.10667,-0.30061 v -6.84605 q 0,-0.25212 -0.14546,-0.37818 -0.14545,-0.12606 -0.25212,-0.17454 l -1.28969,-0.56243 v -0.82424 l 3.55878,-0.48485 v 2.29818 h 0.12606 q 0.50424,-0.70788 0.93091,-1.16363 0.43636,-0.46546 0.82424,-0.73697 0.39757,-0.27152 0.76606,-0.37818 0.36848,-0.10667 0.73697,-0.10667 0.22303,0 0.47515,0.0291 0.26182,0.0194 0.51394,0.0873 0.26181,0.0679 0.50424,0.19394 0.24242,0.12606 0.44606,0.3297 v 2.45333 h -1.38667 l -0.28121,-0.71758 q -0.0485,-0.12606 -0.15515,-0.23272 -0.10667,-0.10667 -0.25212,-0.18424 -0.14545,-0.0776 -0.3103,-0.11637 -0.16485,-0.0485 -0.3297,-0.0485 -0.43636,0 -0.79515,0.16485 -0.34909,0.16484 -0.64969,0.41696 -0.29091,0.25213 -0.54303,0.54303 -0.24243,0.29091 -0.46546,0.55273 v 5.88605 q 0,0.19394 0.097,0.30061 0.10667,0.097 0.27152,0.14545 l 1.5806,0.42667 v 0.79515 h -5.56605 z"
         style="font-size:21.3333px;line-height:1.25;font-family:'Sitka Small';-inkscape-font-specification:'Sitka Small, Normal';white-space:pre;shape-inside:url(#rect1442);fill:#e8e6e6"
         id="path936" />
      <path
         d="m 385.17116,138.65998 v 1.24121 q -0.38788,0.30061 -0.89212,0.60121 -0.50424,0.29091 -1.09576,0.53334 -0.59151,0.23272 -1.2509,0.37818 -0.6594,0.15515 -1.33818,0.15515 -1.09576,0 -2.05576,-0.35879 -0.9503,-0.35879 -1.65818,-1.05697 -0.69818,-0.70788 -1.10545,-1.73575 -0.40727,-1.03758 -0.40727,-2.37576 0,-1.22181 0.38788,-2.26908 0.38787,-1.04727 1.07636,-1.81333 0.69818,-0.76606 1.65818,-1.20243 0.96,-0.43636 2.10424,-0.43636 1.08606,0 1.93939,0.33939 0.85333,0.3394 1.44484,0.92121 0.59152,0.58182 0.90182,1.36728 0.32,0.77575 0.32,1.64848 0,0.097 -0.01,0.25212 0,0.14545 -0.01,0.3103 -0.01,0.16485 -0.0291,0.32 -0.0194,0.15515 -0.0485,0.26182 h -7.62181 q 0,2.13333 1.00849,3.19999 1.00848,1.05697 2.81211,1.05697 0.56243,0 1.08606,-0.13576 0.52364,-0.13575 0.9794,-0.33939 0.45575,-0.20364 0.83393,-0.43636 0.37818,-0.23273 0.64,-0.42667 z m -2.14303,-4.04363 q 0,-0.73697 -0.13576,-1.30909 -0.13575,-0.58181 -0.44606,-0.97939 -0.3006,-0.39758 -0.78545,-0.60121 -0.48485,-0.21333 -1.18303,-0.21333 -0.60121,0 -1.11515,0.20363 -0.50424,0.20364 -0.89212,0.60121 -0.38787,0.39758 -0.6303,0.9794 -0.24242,0.57212 -0.3006,1.31878 z"
         style="font-size:21.3333px;line-height:1.25;font-family:'Sitka Small';-inkscape-font-specification:'Sitka Small, Normal';white-space:pre;shape-inside:url(#rect1442);fill:#e8e6e6"
         id="path938" />
    </g>
  </g>
</svg>
