<?xml version="1.0" encoding="UTF-8" standalone="no"?>
<!-- Created with Sodipodi ("http://www.sodipodi.com/") -->

<svg
   xml:space="preserve"
   width="20"
   height="24"
   style="fill-rule:evenodd;image-rendering:optimizeQuality;shape-rendering:geometricPrecision;text-rendering:geometricPrecision"
   viewBox="0 0 390.63838 456.88739"
   id="svg2"
   sodipodi:version="0.34"
   inkscape:version="1.1 (c68e22c387, 2021-05-23)"
   sodipodi:docname="clef_tensor.svg"
   version="1.1"
   xmlns:inkscape="http://www.inkscape.org/namespaces/inkscape"
   xmlns:sodipodi="http://sodipodi.sourceforge.net/DTD/sodipodi-0.dtd"
   xmlns="http://www.w3.org/2000/svg"
   xmlns:svg="http://www.w3.org/2000/svg"
   xmlns:rdf="http://www.w3.org/1999/02/22-rdf-syntax-ns#"
   xmlns:cc="http://creativecommons.org/ns#"
   xmlns:dc="http://purl.org/dc/elements/1.1/"><metadata
     id="metadata22"><rdf:RDF><cc:Work
         rdf:about=""><dc:format>image/svg+xml</dc:format><dc:type
           rdf:resource="http://purl.org/dc/dcmitype/StillImage" /></cc:Work></rdf:RDF></metadata><sodipodi:namedview
     inkscape:window-height="1051"
     inkscape:window-width="1920"
     inkscape:pageshadow="2"
     inkscape:pageopacity="0.0"
     borderopacity="1.0"
     bordercolor="#666666"
     pagecolor="#ffffff"
     id="base"
     inkscape:zoom="4.9730289"
     inkscape:cx="-62.436798"
     inkscape:cy="0.70379643"
     inkscape:window-x="-9"
     inkscape:window-y="-9"
     inkscape:current-layer="svg2"
     inkscape:pagecheckerboard="0"
     inkscape:document-units="mm"
     showgrid="false"
     units="px"
     inkscape:window-maximized="1" /><defs
     id="defs4"><style
       type="text/css"
       id="style6">
   
    .str1 {stroke:#131516;stroke-width:3}
    .str0 {stroke:#131516;stroke-width:42}
    .fil0 {fill:none}
    .fil1 {fill:#131516}
   
  </style></defs><g
     id="g1236"
     transform="matrix(0.03111376,0,0,0.03136581,53.437668,84.437992)"
     style="stroke-width:32.0107;fill:#ffffff;fill-opacity:0.94999999;stroke:none"><path
       class="fil1 str1"
       d="M 1287.3163,9222.9566 V 428.99554 235.8659 H 2403.167 v 8793.9611 193.1296 z m 1677.8935,0 V 428.99554 235.8659 h 354.1076 v 4406.3558 c 179.1126,-84.3771 358.2251,-258.7563 537.3377,-526.8877 179.1125,-266.2564 329.4024,-551.2632 446.752,-851.2704 119.4083,-300.0072 183.2301,-521.2625 189.4064,-667.516 55.5866,320.6327 144.1135,575.6388 261.4631,768.7684 119.4084,193.1296 253.2281,330.0079 401.4592,412.5099 150.2898,82.502 300.5797,123.753 452.9283,123.753 370.5777,0 609.3944,-153.7537 708.2151,-465.0112 100.8795,-307.5074 150.2899,-686.2665 150.2899,-1128.7771 0,-202.5048 -4.1175,-384.3842 -16.4701,-545.6381 -10.2939,-163.1289 -37.0578,-326.2578 -82.3506,-489.3867 C 6325.1143,1107.7618 6253.0575,959.63327 6150.1193,830.25517 6047.181,700.87706 5911.3025,610.8749 5742.4838,562.12373 c -150.2898,-35.62585 -300.5797,-54.3763 -448.8108,-54.3763 -133.8197,0 -244.993,22.50054 -335.5787,65.62657 -88.5269,43.12604 -139.996,105.00252 -150.2898,181.87937 20.5876,67.50162 74.1155,148.12855 160.5837,241.8808 88.5269,93.75223 148.231,165.00393 181.1713,210.00503 32.9402,46.8761 49.4103,114.3778 49.4103,200.6298 0,153.7537 -59.7041,285.0069 -177.0537,393.7595 -117.3496,106.8775 -273.8158,161.2538 -471.4572,161.2538 -193.5239,0 -349.9901,-63.7515 -467.3397,-191.2545 -117.3496,-127.5031 -181.1713,-279.3817 -191.4651,-451.8859 18.5289,-234.3806 111.1733,-433.13538 275.8745,-601.88943 166.7599,-165.00396 374.6952,-290.63198 619.6882,-373.13396 249.1106,-84.37702 496.1624,-127.50306 747.3317,-127.50306 284.1096,0 557.9254,46.87613 821.4473,138.75333 261.4631,91.87721 496.1623,226.88045 699.9801,403.13468 205.8765,178.12927 368.5189,397.50954 485.8685,654.39074 117.3496,256.8811 177.0538,549.3881 177.0538,873.7709 0,450.0108 -90.5857,823.1448 -273.8157,1119.4019 -183.2301,296.2571 -417.9293,515.6374 -704.0977,654.3907 -288.2271,138.7533 -594.9831,211.8801 -922.3267,219.3803 -333.5199,-16.8754 -613.512,-86.2521 -839.9761,-202.5049 l -444.6932,652.5157 444.6932,650.6406 c 310.8735,-112.5027 611.4532,-168.7541 905.8566,-168.7541 372.6365,0 695.8626,97.5024 975.8546,290.632 279.992,191.2546 494.1036,442.5106 638.2172,750.018 146.1723,307.5074 220.2878,624.39 220.2878,952.5229 0,360.0086 -88.5269,693.7666 -263.5219,1001.274 -177.0538,309.3824 -424.1056,556.8884 -745.2729,740.6428 -321.1674,183.7544 -687.6276,275.6316 -1101.4393,275.6316 -483.8098,-18.7505 -887.3277,-121.8779 -1212.6126,-311.2575 -321.1673,-189.3795 -483.8098,-470.6363 -483.8098,-841.8952 20.5877,-176.2542 92.6444,-316.8826 218.2291,-418.135 123.5259,-105.0025 257.3456,-161.2539 403.518,-170.6291 179.1125,0 337.6374,56.2513 475.5747,170.6291 139.996,112.5027 209.994,251.256 209.994,420.0101 0,65.6265 -16.4701,125.628 -49.4104,181.8793 -32.9402,54.3763 -82.3506,120.0029 -148.231,193.1297 -67.9393,73.1267 -113.2321,127.503 -137.9373,163.1289 -26.7639,35.6258 -45.2928,78.7519 -55.5867,133.1282 0,67.5016 47.3516,123.7529 142.0548,170.6291 94.7032,45.001 216.1704,73.1267 362.3427,82.5019 463.2221,-18.7504 769.9781,-195.0046 922.3267,-530.6377 154.4074,-335.633 230.5817,-753.7681 230.5817,-1258.1552 0,-438.7605 -55.5867,-823.1447 -162.6425,-1155.0277 -111.1733,-330.0079 -349.99,-495.0119 -714.3914,-495.0119 -327.3437,0 -580.5717,129.3781 -759.6843,386.2593 -174.995,255.0061 -288.2271,555.0133 -337.6375,901.8966 -53.5279,-290.6319 -142.0547,-571.8887 -263.5219,-845.6453 C 4128.412,5725.9977 3988.416,5487.8669 3827.8324,5281.612 3669.3075,5077.2321 3498.43,4915.9782 3319.3174,4799.7254 v 4423.2312 z"
       id="path19"
       style="fill:#ffffff;stroke:none;stroke-width:188.68;fill-opacity:0.94999999" /></g></svg>
